<mxfile host="app.diagrams.net" agent="Mozilla/5.0 (Windows NT 10.0; Win64; x64) AppleWebKit/537.36 (KHTML, like Gecko) Chrome/136.0.0.0 Safari/537.36" version="27.0.1">
  <diagram name="Page-1" id="3jWUtNprKV4qjtksbIkC">
    <mxGraphModel dx="433" dy="223" grid="1" gridSize="10" guides="1" tooltips="1" connect="1" arrows="1" fold="1" page="1" pageScale="1" pageWidth="850" pageHeight="1100" math="0" shadow="0">
      <root>
        <mxCell id="0" />
        <mxCell id="1" parent="0" />
        <mxCell id="nGsOf4bA84srVl5doOIu-65" value="" style="rounded=0;whiteSpace=wrap;html=1;strokeColor=#007FFF;fillColor=none;dashed=1;strokeWidth=2;" vertex="1" parent="1">
          <mxGeometry x="128" y="680" width="242" height="110" as="geometry" />
        </mxCell>
        <mxCell id="nGsOf4bA84srVl5doOIu-3" value="VPC" style="sketch=0;outlineConnect=0;gradientColor=none;html=1;whiteSpace=wrap;fontSize=12;fontStyle=0;shape=mxgraph.aws4.group;grIcon=mxgraph.aws4.group_vpc;strokeColor=#879196;fillColor=none;verticalAlign=top;align=left;spacingLeft=30;fontColor=#879196;dashed=0;" vertex="1" parent="1">
          <mxGeometry x="65" y="210" width="720" height="870" as="geometry" />
        </mxCell>
        <mxCell id="nGsOf4bA84srVl5doOIu-42" value="Public Security Group" style="fontStyle=0;verticalAlign=top;align=center;spacingTop=-2;fillColor=none;rounded=0;whiteSpace=wrap;html=1;strokeColor=#FF0000;strokeWidth=2;dashed=1;container=1;collapsible=0;expand=0;recursiveResize=0;" vertex="1" parent="1">
          <mxGeometry x="80" y="270" width="680" height="220" as="geometry" />
        </mxCell>
        <mxCell id="nGsOf4bA84srVl5doOIu-4" value="Public Subnet AZ1" style="sketch=0;outlineConnect=0;gradientColor=none;html=1;whiteSpace=wrap;fontSize=12;fontStyle=0;shape=mxgraph.aws4.group;grIcon=mxgraph.aws4.group_subnet;strokeColor=#879196;fillColor=none;verticalAlign=top;align=left;spacingLeft=30;fontColor=#879196;dashed=0;" vertex="1" parent="1">
          <mxGeometry x="100" y="300" width="300" height="180" as="geometry" />
        </mxCell>
        <mxCell id="nGsOf4bA84srVl5doOIu-61" value="" style="rounded=0;whiteSpace=wrap;html=1;strokeColor=#007FFF;fillColor=none;dashed=1;strokeWidth=2;" vertex="1" parent="1">
          <mxGeometry x="110" y="331" width="160" height="139" as="geometry" />
        </mxCell>
        <mxCell id="nGsOf4bA84srVl5doOIu-43" value="Private Security Group" style="fontStyle=0;verticalAlign=top;align=center;spacingTop=-2;fillColor=none;rounded=0;whiteSpace=wrap;html=1;strokeColor=#FF0000;strokeWidth=2;dashed=1;container=1;collapsible=0;expand=0;recursiveResize=0;" vertex="1" parent="1">
          <mxGeometry x="80" y="630" width="680" height="190" as="geometry" />
        </mxCell>
        <mxCell id="nGsOf4bA84srVl5doOIu-5" value="Public Subnet AZ2" style="sketch=0;outlineConnect=0;gradientColor=none;html=1;whiteSpace=wrap;fontSize=12;fontStyle=0;shape=mxgraph.aws4.group;grIcon=mxgraph.aws4.group_subnet;strokeColor=#879196;fillColor=none;verticalAlign=top;align=left;spacingLeft=30;fontColor=#879196;dashed=0;" vertex="1" parent="1">
          <mxGeometry x="440" y="300" width="300" height="170" as="geometry" />
        </mxCell>
        <mxCell id="nGsOf4bA84srVl5doOIu-46" style="edgeStyle=orthogonalEdgeStyle;rounded=0;orthogonalLoop=1;jettySize=auto;html=1;exitX=0.145;exitY=0.855;exitDx=0;exitDy=0;exitPerimeter=0;" edge="1" parent="1" source="nGsOf4bA84srVl5doOIu-6" target="nGsOf4bA84srVl5doOIu-12">
          <mxGeometry relative="1" as="geometry">
            <Array as="points">
              <mxPoint x="390" y="250" />
              <mxPoint x="184" y="250" />
            </Array>
          </mxGeometry>
        </mxCell>
        <mxCell id="nGsOf4bA84srVl5doOIu-59" value="2. Initial Request (GET /token)" style="edgeLabel;html=1;align=center;verticalAlign=middle;resizable=0;points=[];" vertex="1" connectable="0" parent="nGsOf4bA84srVl5doOIu-46">
          <mxGeometry x="-0.3747" y="-2" relative="1" as="geometry">
            <mxPoint x="-17" as="offset" />
          </mxGeometry>
        </mxCell>
        <mxCell id="nGsOf4bA84srVl5doOIu-6" value="IGW" style="outlineConnect=0;dashed=0;verticalLabelPosition=bottom;verticalAlign=top;align=center;html=1;shape=mxgraph.aws3.internet_gateway;fillColor=#F58534;gradientColor=none;" vertex="1" parent="1">
          <mxGeometry x="380" y="160" width="69" height="72" as="geometry" />
        </mxCell>
        <mxCell id="nGsOf4bA84srVl5doOIu-7" value="Private Subnet AZ1" style="sketch=0;outlineConnect=0;gradientColor=none;html=1;whiteSpace=wrap;fontSize=12;fontStyle=0;shape=mxgraph.aws4.group;grIcon=mxgraph.aws4.group_subnet;strokeColor=#879196;fillColor=none;verticalAlign=top;align=left;spacingLeft=30;fontColor=#879196;dashed=0;" vertex="1" parent="1">
          <mxGeometry x="100" y="651" width="300" height="149" as="geometry" />
        </mxCell>
        <mxCell id="nGsOf4bA84srVl5doOIu-10" value="VPC NAT AZ2" style="outlineConnect=0;dashed=0;verticalLabelPosition=bottom;verticalAlign=top;align=center;html=1;shape=mxgraph.aws3.vpc_nat_gateway;fillColor=#F58534;gradientColor=none;" vertex="1" parent="1">
          <mxGeometry x="620" y="360.5" width="69" height="72" as="geometry" />
        </mxCell>
        <mxCell id="nGsOf4bA84srVl5doOIu-11" value="VPC NAT AZ1" style="outlineConnect=0;dashed=0;verticalLabelPosition=bottom;verticalAlign=top;align=center;html=1;shape=mxgraph.aws3.vpc_nat_gateway;fillColor=#F58534;gradientColor=none;" vertex="1" parent="1">
          <mxGeometry x="301" y="364.5" width="69" height="72" as="geometry" />
        </mxCell>
        <mxCell id="nGsOf4bA84srVl5doOIu-13" value="ALB PUBLIC IP" style="sketch=0;points=[[0,0,0],[0.25,0,0],[0.5,0,0],[0.75,0,0],[1,0,0],[0,1,0],[0.25,1,0],[0.5,1,0],[0.75,1,0],[1,1,0],[0,0.25,0],[0,0.5,0],[0,0.75,0],[1,0.25,0],[1,0.5,0],[1,0.75,0]];outlineConnect=0;fontColor=#232F3E;fillColor=#ED7100;strokeColor=#ffffff;dashed=0;verticalLabelPosition=bottom;verticalAlign=top;align=center;html=1;fontSize=12;fontStyle=0;aspect=fixed;shape=mxgraph.aws4.resourceIcon;resIcon=mxgraph.aws4.elastic_load_balancing;" vertex="1" parent="1">
          <mxGeometry x="490" y="364.5" width="68" height="68" as="geometry" />
        </mxCell>
        <mxCell id="nGsOf4bA84srVl5doOIu-15" style="edgeStyle=orthogonalEdgeStyle;rounded=0;orthogonalLoop=1;jettySize=auto;html=1;exitX=1;exitY=1;exitDx=0;exitDy=0;exitPerimeter=0;entryX=0.5;entryY=0;entryDx=0;entryDy=0;entryPerimeter=0;" edge="1" parent="1" source="nGsOf4bA84srVl5doOIu-24" target="nGsOf4bA84srVl5doOIu-6">
          <mxGeometry relative="1" as="geometry">
            <mxPoint x="380" y="269" as="sourcePoint" />
            <Array as="points">
              <mxPoint x="415" y="100" />
            </Array>
          </mxGeometry>
        </mxCell>
        <mxCell id="nGsOf4bA84srVl5doOIu-30" value="2. Initial Request (GET /token)" style="edgeLabel;html=1;align=center;verticalAlign=middle;resizable=0;points=[];" vertex="1" connectable="0" parent="nGsOf4bA84srVl5doOIu-15">
          <mxGeometry x="-0.1657" relative="1" as="geometry">
            <mxPoint as="offset" />
          </mxGeometry>
        </mxCell>
        <mxCell id="nGsOf4bA84srVl5doOIu-44" style="edgeStyle=orthogonalEdgeStyle;rounded=0;orthogonalLoop=1;jettySize=auto;html=1;exitX=0.993;exitY=0.687;exitDx=0;exitDy=0;exitPerimeter=0;entryX=0.5;entryY=1;entryDx=0;entryDy=0;entryPerimeter=0;" edge="1" parent="1" source="nGsOf4bA84srVl5doOIu-21" target="nGsOf4bA84srVl5doOIu-6">
          <mxGeometry relative="1" as="geometry">
            <mxPoint x="900" y="535" as="sourcePoint" />
            <mxPoint x="1001.5" y="200" as="targetPoint" />
            <Array as="points">
              <mxPoint x="415" y="750" />
            </Array>
          </mxGeometry>
        </mxCell>
        <mxCell id="nGsOf4bA84srVl5doOIu-45" value="6. Token Response&lt;div&gt;(200/401)&lt;/div&gt;" style="edgeLabel;html=1;align=center;verticalAlign=middle;resizable=0;points=[];" vertex="1" connectable="0" parent="nGsOf4bA84srVl5doOIu-44">
          <mxGeometry x="-0.005" relative="1" as="geometry">
            <mxPoint y="-15" as="offset" />
          </mxGeometry>
        </mxCell>
        <mxCell id="nGsOf4bA84srVl5doOIu-57" style="edgeStyle=orthogonalEdgeStyle;rounded=0;orthogonalLoop=1;jettySize=auto;html=1;startArrow=classicThin;startFill=1;" edge="1" parent="1" source="nGsOf4bA84srVl5doOIu-21" target="nGsOf4bA84srVl5doOIu-55">
          <mxGeometry relative="1" as="geometry" />
        </mxCell>
        <mxCell id="nGsOf4bA84srVl5doOIu-58" value="5. Query Identity/Issues Token" style="edgeLabel;html=1;align=center;verticalAlign=middle;resizable=0;points=[];" vertex="1" connectable="0" parent="nGsOf4bA84srVl5doOIu-57">
          <mxGeometry x="-0.1002" relative="1" as="geometry">
            <mxPoint y="3" as="offset" />
          </mxGeometry>
        </mxCell>
        <mxCell id="nGsOf4bA84srVl5doOIu-21" value="EKS NODE AZ1" style="sketch=0;points=[[0,0,0],[0.25,0,0],[0.5,0,0],[0.75,0,0],[1,0,0],[0,1,0],[0.25,1,0],[0.5,1,0],[0.75,1,0],[1,1,0],[0,0.25,0],[0,0.5,0],[0,0.75,0],[1,0.25,0],[1,0.5,0],[1,0.75,0]];outlineConnect=0;fontColor=#232F3E;fillColor=#ED7100;strokeColor=#ffffff;dashed=0;verticalLabelPosition=bottom;verticalAlign=top;align=center;html=1;fontSize=12;fontStyle=0;aspect=fixed;shape=mxgraph.aws4.resourceIcon;resIcon=mxgraph.aws4.eks;" vertex="1" parent="1">
          <mxGeometry x="227" y="720" width="44" height="44" as="geometry" />
        </mxCell>
        <mxCell id="nGsOf4bA84srVl5doOIu-23" value="DNS (A with 2 IPs)" style="sketch=0;points=[[0,0,0],[0.25,0,0],[0.5,0,0],[0.75,0,0],[1,0,0],[0,1,0],[0.25,1,0],[0.5,1,0],[0.75,1,0],[1,1,0],[0,0.25,0],[0,0.5,0],[0,0.75,0],[1,0.25,0],[1,0.5,0],[1,0.75,0]];outlineConnect=0;fontColor=#232F3E;fillColor=#8C4FFF;strokeColor=#ffffff;dashed=0;verticalLabelPosition=bottom;verticalAlign=top;align=center;html=1;fontSize=12;fontStyle=0;aspect=fixed;shape=mxgraph.aws4.resourceIcon;resIcon=mxgraph.aws4.route_53;" vertex="1" parent="1">
          <mxGeometry x="580" y="22" width="78" height="78" as="geometry" />
        </mxCell>
        <mxCell id="nGsOf4bA84srVl5doOIu-25" style="edgeStyle=orthogonalEdgeStyle;rounded=0;orthogonalLoop=1;jettySize=auto;html=1;exitX=1;exitY=0.3333333333333333;exitDx=0;exitDy=0;exitPerimeter=0;startArrow=classic;startFill=1;" edge="1" parent="1" source="nGsOf4bA84srVl5doOIu-24" target="nGsOf4bA84srVl5doOIu-23">
          <mxGeometry relative="1" as="geometry">
            <Array as="points">
              <mxPoint x="410" y="60" />
              <mxPoint x="410" y="60" />
            </Array>
          </mxGeometry>
        </mxCell>
        <mxCell id="nGsOf4bA84srVl5doOIu-26" value="1. Resolves DNS (TCP/UDP 53)" style="edgeLabel;html=1;align=center;verticalAlign=middle;resizable=0;points=[];" vertex="1" connectable="0" parent="nGsOf4bA84srVl5doOIu-25">
          <mxGeometry x="-0.1053" y="-1" relative="1" as="geometry">
            <mxPoint x="-71" y="-1" as="offset" />
          </mxGeometry>
        </mxCell>
        <mxCell id="nGsOf4bA84srVl5doOIu-24" value="Actor" style="shape=umlActor;verticalLabelPosition=bottom;verticalAlign=top;html=1;outlineConnect=0;perimeterSpacing=0;" vertex="1" parent="1">
          <mxGeometry x="100" y="40" width="30" height="60" as="geometry" />
        </mxCell>
        <mxCell id="nGsOf4bA84srVl5doOIu-37" value="WAF" style="sketch=0;points=[[0,0,0],[0.25,0,0],[0.5,0,0],[0.75,0,0],[1,0,0],[0,1,0],[0.25,1,0],[0.5,1,0],[0.75,1,0],[1,1,0],[0,0.25,0],[0,0.5,0],[0,0.75,0],[1,0.25,0],[1,0.5,0],[1,0.75,0]];outlineConnect=0;fontColor=#232F3E;fillColor=#DD344C;strokeColor=#ffffff;dashed=0;verticalLabelPosition=bottom;verticalAlign=top;align=center;html=1;fontSize=12;fontStyle=0;aspect=fixed;shape=mxgraph.aws4.resourceIcon;resIcon=mxgraph.aws4.waf;" vertex="1" parent="1">
          <mxGeometry x="90" y="518" width="78" height="78" as="geometry" />
        </mxCell>
        <mxCell id="nGsOf4bA84srVl5doOIu-38" style="edgeStyle=orthogonalEdgeStyle;rounded=0;orthogonalLoop=1;jettySize=auto;html=1;exitX=1;exitY=0.5;exitDx=0;exitDy=0;exitPerimeter=0;" edge="1" parent="1" source="nGsOf4bA84srVl5doOIu-12" target="nGsOf4bA84srVl5doOIu-37">
          <mxGeometry relative="1" as="geometry">
            <Array as="points">
              <mxPoint x="250" y="406" />
              <mxPoint x="250" y="540" />
            </Array>
          </mxGeometry>
        </mxCell>
        <mxCell id="nGsOf4bA84srVl5doOIu-39" value="3. Checks WAF Rules&lt;div&gt;(XSS/SQLI etc)&lt;/div&gt;" style="edgeLabel;html=1;align=center;verticalAlign=middle;resizable=0;points=[];" vertex="1" connectable="0" parent="nGsOf4bA84srVl5doOIu-38">
          <mxGeometry x="0.4521" y="1" relative="1" as="geometry">
            <mxPoint x="23" y="-5" as="offset" />
          </mxGeometry>
        </mxCell>
        <mxCell id="nGsOf4bA84srVl5doOIu-40" style="edgeStyle=orthogonalEdgeStyle;rounded=0;orthogonalLoop=1;jettySize=auto;html=1;" edge="1" parent="1" target="nGsOf4bA84srVl5doOIu-21">
          <mxGeometry relative="1" as="geometry">
            <mxPoint x="168.00000000000006" y="567.5" as="sourcePoint" />
            <mxPoint x="239" y="687.5" as="targetPoint" />
            <Array as="points">
              <mxPoint x="300" y="568" />
              <mxPoint x="300" y="730" />
            </Array>
          </mxGeometry>
        </mxCell>
        <mxCell id="nGsOf4bA84srVl5doOIu-41" value="4. Forwards to EKS&amp;nbsp;&lt;div&gt;Service/Pod via NodePort&lt;/div&gt;" style="edgeLabel;html=1;align=center;verticalAlign=middle;resizable=0;points=[];" vertex="1" connectable="0" parent="nGsOf4bA84srVl5doOIu-40">
          <mxGeometry x="-0.2744" y="-1" relative="1" as="geometry">
            <mxPoint x="-30" y="2" as="offset" />
          </mxGeometry>
        </mxCell>
        <mxCell id="nGsOf4bA84srVl5doOIu-47" style="edgeStyle=orthogonalEdgeStyle;rounded=0;orthogonalLoop=1;jettySize=auto;html=1;entryX=0.667;entryY=1.333;entryDx=0;entryDy=0;entryPerimeter=0;exitX=0.145;exitY=0.145;exitDx=0;exitDy=0;exitPerimeter=0;" edge="1" parent="1" source="nGsOf4bA84srVl5doOIu-6" target="nGsOf4bA84srVl5doOIu-24">
          <mxGeometry relative="1" as="geometry">
            <Array as="points">
              <mxPoint x="390" y="150" />
              <mxPoint x="120" y="150" />
            </Array>
          </mxGeometry>
        </mxCell>
        <mxCell id="nGsOf4bA84srVl5doOIu-48" value="6. Token Response&lt;div&gt;(200/401)&lt;/div&gt;" style="edgeLabel;html=1;align=center;verticalAlign=middle;resizable=0;points=[];" vertex="1" connectable="0" parent="nGsOf4bA84srVl5doOIu-47">
          <mxGeometry x="0.0925" y="1" relative="1" as="geometry">
            <mxPoint x="45" as="offset" />
          </mxGeometry>
        </mxCell>
        <mxCell id="nGsOf4bA84srVl5doOIu-50" value="Private Subnet AZ2" style="sketch=0;outlineConnect=0;gradientColor=none;html=1;whiteSpace=wrap;fontSize=12;fontStyle=0;shape=mxgraph.aws4.group;grIcon=mxgraph.aws4.group_subnet;strokeColor=#879196;fillColor=none;verticalAlign=top;align=left;spacingLeft=30;fontColor=#879196;dashed=0;" vertex="1" parent="1">
          <mxGeometry x="440" y="651" width="300" height="149" as="geometry" />
        </mxCell>
        <mxCell id="nGsOf4bA84srVl5doOIu-51" value="EKS NODE AZ1" style="sketch=0;points=[[0,0,0],[0.25,0,0],[0.5,0,0],[0.75,0,0],[1,0,0],[0,1,0],[0.25,1,0],[0.5,1,0],[0.75,1,0],[1,1,0],[0,0.25,0],[0,0.5,0],[0,0.75,0],[1,0.25,0],[1,0.5,0],[1,0.75,0]];outlineConnect=0;fontColor=#232F3E;fillColor=#ED7100;strokeColor=#ffffff;dashed=0;verticalLabelPosition=bottom;verticalAlign=top;align=center;html=1;fontSize=12;fontStyle=0;aspect=fixed;shape=mxgraph.aws4.resourceIcon;resIcon=mxgraph.aws4.eks;" vertex="1" parent="1">
          <mxGeometry x="540" y="686" width="78" height="78" as="geometry" />
        </mxCell>
        <mxCell id="nGsOf4bA84srVl5doOIu-52" value="DB Security Group (TCP 5432 + Private Subnet CIDR Only)" style="fontStyle=0;verticalAlign=top;align=center;spacingTop=-2;fillColor=none;rounded=0;whiteSpace=wrap;html=1;strokeColor=#FF0000;strokeWidth=2;dashed=1;container=1;collapsible=0;expand=0;recursiveResize=0;" vertex="1" parent="1">
          <mxGeometry x="85" y="870" width="680" height="190" as="geometry" />
        </mxCell>
        <mxCell id="nGsOf4bA84srVl5doOIu-53" value="DB Subnet AZ1" style="sketch=0;outlineConnect=0;gradientColor=none;html=1;whiteSpace=wrap;fontSize=12;fontStyle=0;shape=mxgraph.aws4.group;grIcon=mxgraph.aws4.group_subnet;strokeColor=#879196;fillColor=none;verticalAlign=top;align=left;spacingLeft=30;fontColor=#879196;dashed=0;" vertex="1" parent="1">
          <mxGeometry x="105" y="910" width="300" height="140" as="geometry" />
        </mxCell>
        <mxCell id="nGsOf4bA84srVl5doOIu-54" value="DB Subnet AZ2" style="sketch=0;outlineConnect=0;gradientColor=none;html=1;whiteSpace=wrap;fontSize=12;fontStyle=0;shape=mxgraph.aws4.group;grIcon=mxgraph.aws4.group_subnet;strokeColor=#879196;fillColor=none;verticalAlign=top;align=left;spacingLeft=30;fontColor=#879196;dashed=0;" vertex="1" parent="1">
          <mxGeometry x="445" y="910" width="300" height="140" as="geometry" />
        </mxCell>
        <mxCell id="nGsOf4bA84srVl5doOIu-69" style="edgeStyle=orthogonalEdgeStyle;rounded=0;orthogonalLoop=1;jettySize=auto;html=1;startArrow=classic;startFill=1;" edge="1" parent="1" source="nGsOf4bA84srVl5doOIu-55" target="nGsOf4bA84srVl5doOIu-56">
          <mxGeometry relative="1" as="geometry" />
        </mxCell>
        <mxCell id="nGsOf4bA84srVl5doOIu-70" value="Active/Passive Replication" style="edgeLabel;html=1;align=center;verticalAlign=middle;resizable=0;points=[];" vertex="1" connectable="0" parent="nGsOf4bA84srVl5doOIu-69">
          <mxGeometry x="-0.2822" y="-1" relative="1" as="geometry">
            <mxPoint x="28" as="offset" />
          </mxGeometry>
        </mxCell>
        <mxCell id="nGsOf4bA84srVl5doOIu-55" value="Postgresql Active" style="sketch=0;outlineConnect=0;fontColor=#232F3E;gradientColor=none;fillColor=#C925D1;strokeColor=none;dashed=0;verticalLabelPosition=bottom;verticalAlign=top;align=center;html=1;fontSize=12;fontStyle=0;aspect=fixed;pointerEvents=1;shape=mxgraph.aws4.rds_instance;" vertex="1" parent="1">
          <mxGeometry x="210" y="940" width="78" height="78" as="geometry" />
        </mxCell>
        <mxCell id="nGsOf4bA84srVl5doOIu-56" value="Postgresql Passive" style="sketch=0;outlineConnect=0;fontColor=#232F3E;gradientColor=none;fillColor=#C925D1;strokeColor=none;dashed=0;verticalLabelPosition=bottom;verticalAlign=top;align=center;html=1;fontSize=12;fontStyle=0;aspect=fixed;pointerEvents=1;shape=mxgraph.aws4.rds_instance;" vertex="1" parent="1">
          <mxGeometry x="540" y="940" width="78" height="78" as="geometry" />
        </mxCell>
        <mxCell id="nGsOf4bA84srVl5doOIu-62" value="" style="aspect=fixed;sketch=0;html=1;dashed=0;whitespace=wrap;verticalLabelPosition=bottom;verticalAlign=top;fillColor=#2875E2;strokeColor=#ffffff;points=[[0.005,0.63,0],[0.1,0.2,0],[0.9,0.2,0],[0.5,0,0],[0.995,0.63,0],[0.72,0.99,0],[0.5,1,0],[0.28,0.99,0]];shape=mxgraph.kubernetes.icon2;prIcon=ing" vertex="1" parent="1">
          <mxGeometry x="117.38" y="342" width="31.25" height="30" as="geometry" />
        </mxCell>
        <mxCell id="nGsOf4bA84srVl5doOIu-12" value="ALB PUBLIC IP" style="sketch=0;points=[[0,0,0],[0.25,0,0],[0.5,0,0],[0.75,0,0],[1,0,0],[0,1,0],[0.25,1,0],[0.5,1,0],[0.75,1,0],[1,1,0],[0,0.25,0],[0,0.5,0],[0,0.75,0],[1,0.25,0],[1,0.5,0],[1,0.75,0]];outlineConnect=0;fontColor=#232F3E;fillColor=#ED7100;strokeColor=#ffffff;dashed=0;verticalLabelPosition=bottom;verticalAlign=top;align=center;html=1;fontSize=12;fontStyle=0;aspect=fixed;shape=mxgraph.aws4.resourceIcon;resIcon=mxgraph.aws4.elastic_load_balancing;" vertex="1" parent="1">
          <mxGeometry x="153.5" y="372" width="68" height="68" as="geometry" />
        </mxCell>
        <mxCell id="nGsOf4bA84srVl5doOIu-64" value="EKS Ingress" style="text;html=1;align=center;verticalAlign=middle;whiteSpace=wrap;rounded=0;" vertex="1" parent="1">
          <mxGeometry x="135.5" y="342" width="110" height="30" as="geometry" />
        </mxCell>
        <mxCell id="nGsOf4bA84srVl5doOIu-66" value="" style="aspect=fixed;sketch=0;html=1;dashed=0;whitespace=wrap;verticalLabelPosition=bottom;verticalAlign=top;fillColor=#2875E2;strokeColor=#ffffff;points=[[0.005,0.63,0],[0.1,0.2,0],[0.9,0.2,0],[0.5,0,0],[0.995,0.63,0],[0.72,0.99,0],[0.5,1,0],[0.28,0.99,0]];shape=mxgraph.kubernetes.icon2;prIcon=ing" vertex="1" parent="1">
          <mxGeometry x="132.38" y="685" width="31.25" height="30" as="geometry" />
        </mxCell>
        <mxCell id="nGsOf4bA84srVl5doOIu-67" value="EKS Node Group" style="text;html=1;align=center;verticalAlign=middle;whiteSpace=wrap;rounded=0;" vertex="1" parent="1">
          <mxGeometry x="159.5" y="685" width="110" height="30" as="geometry" />
        </mxCell>
        <mxCell id="nGsOf4bA84srVl5doOIu-68" value="&lt;b&gt;&lt;font style=&quot;font-size: 16px;&quot;&gt;2. Network Design with Auth Token (AWS)&lt;/font&gt;&lt;/b&gt;" style="text;html=1;align=center;verticalAlign=middle;resizable=0;points=[];autosize=1;strokeColor=none;fillColor=none;" vertex="1" parent="1">
          <mxGeometry x="10" y="10" width="340" height="30" as="geometry" />
        </mxCell>
      </root>
    </mxGraphModel>
  </diagram>
</mxfile>
